<svg xmlns="http://www.w3.org/2000/svg" id="Google__G__Logo" width="24" height="24" viewBox="0 0 24 24">
    <defs>
        <clipPath id="clip-path">
            <path id="Path_442" d="M25.721 11.818H14.279v4.636h6.586c-.614 2.945-3.181 4.636-6.586 4.636a7.093 7.093 0 1 1 0-14.182A7.2 7.2 0 0 1 18.8 8.491L22.372 5a12.387 12.387 0 0 0-8.093-3A12.107 12.107 0 0 0 2 14a12.107 12.107 0 0 0 12.279 12C20.419 26 26 21.636 26 14a9.741 9.741 0 0 0-.279-2.182z" transform="translate(-2 -2)"/>
        </clipPath>
        <style>
            .cls-1{clip-path:url(#clip-path)}
        </style>
    </defs>
    <g id="Group_595" class="cls-1">
        <path id="Path_441" fill="#fbbc05" d="M0 25.182V11l9.488 7.091z" transform="translate(-1.116 -6.091)"/>
    </g>
    <g id="Group_596" class="cls-1">
        <path id="Path_443" fill="#ea4335" d="M0 6l9.488 7.091L13.4 9.764l13.4-2.127V0H0z" transform="translate(-1.116 -1.091)"/>
    </g>
    <g id="Group_597" class="cls-1">
        <path id="Path_445" fill="#34a853" d="M0 20.182L16.744 7.636l4.409.545L26.791 0v26.182H0z" transform="translate(-1.116 -1.091)"/>
    </g>
    <g id="Group_598" class="cls-1">
        <path id="Path_447" fill="#4285f4" d="M32.535 31.182l-17.3-13.091L13 16.455 32.535 11z" transform="translate(-6.86 -6.091)"/>
    </g>
</svg>
