<svg xmlns="http://www.w3.org/2000/svg" width="80" height="70" viewBox="0 0 80 70">
    <defs>
        <style>
            .cls-1{fill:#3cf1b8}
        </style>
    </defs>
    <g id="Group_678" transform="translate(-234.575 -568.868)">
        <g id="Group_674" transform="translate(234.575 568.868)">
            <g id="Group_673">
                <rect id="Rectangle_74" width="80" height="70" class="cls-1" rx="15"/>
            </g>
        </g>
        <g id="Group_676" transform="translate(238 572.293)">
            <g id="Group_675">
                <rect id="Rectangle_75" width="73.151" height="63.151" fill="#1ad0a6" rx="15"/>
            </g>
        </g>
        <g id="Group_677" transform="translate(254.235 583.338)">
            <path id="Path_662" d="M517.769 769.725c-2.257-1.84-6.063-2.055-8.02.454q-4.993 6.4-10.308 12.537-2.615 3.015-5.309 5.962-1.228 1.344-2.474 2.672c-.3-.248-.606-.5-.905-.749-1.545-1.31-3.019-2.7-4.438-4.141a5.712 5.712 0 0 0-8.02.454 5.814 5.814 0 0 0 .454 8.02 49.791 49.791 0 0 0 10.095 8.408c3.1 1.787 6.3.76 8.67-1.658 1.489-1.521 2.933-3.088 4.374-4.654q8.561-9.3 16.336-19.283c1.823-2.34 2.034-5.992-.455-8.022z" class="cls-1" transform="translate(-476.903 -766.771)"/>
            <path id="Path_663" fill="#fff" d="M517.769 751.136c-2.257-1.84-6.063-2.055-8.02.454q-4.993 6.4-10.308 12.537-2.615 3.015-5.309 5.962-1.228 1.344-2.474 2.672c-.3-.248-.606-.5-.905-.749-1.545-1.31-3.019-2.7-4.438-4.141a5.712 5.712 0 0 0-8.02.454 5.814 5.814 0 0 0 .454 8.02 49.792 49.792 0 0 0 10.095 8.408c3.1 1.787 6.3.76 8.67-1.658 1.489-1.521 2.933-3.088 4.374-4.654q8.561-9.3 16.336-19.283c1.823-2.339 2.034-5.992-.455-8.022z" transform="translate(-476.903 -749.731)"/>
        </g>
    </g>
</svg>
